HIERARCHY
ROOT Hips
{
  OFFSET 265.287 66.7526 -254.649
  CHANNELS 6 Xposition Yposition Zposition Zrotation Xrotation Yrotation
  JOINT LeftUpLeg
  {
    OFFSET 8.64259 1.95398 -2.38835
    CHANNELS 3 Zrotation Xrotation Yrotation
    JOINT LeftLeg
    {
      OFFSET 43.7702 0 0
      CHANNELS 3 Zrotation Xrotation Yrotation
      JOINT LeftFoot
      {
        OFFSET 40.6238 0 0
        CHANNELS 3 Zrotation Xrotation Yrotation
        JOINT LeftToeBase
        {
          OFFSET 12.7242 0 0
          CHANNELS 3 Zrotation Xrotation Yrotation
          End Site
          {
            OFFSET 0 0 0
          }
        }
      }
    }
  }
  JOINT RightUpLeg
  {
    OFFSET -8.2249 1.95398 -2.59336
    CHANNELS 3 Zrotation Xrotation Yrotation
    JOINT RightLeg
    {
      OFFSET 43.5653 0 0
      CHANNELS 3 Zrotation Xrotation Yrotation
      JOINT RightFoot
      {
        OFFSET 40.6238 0 0
        CHANNELS 3 Zrotation Xrotation Yrotation
        JOINT RightToeBase
        {
          OFFSET 12.7242 0 0
          CHANNELS 3 Zrotation Xrotation Yrotation
          End Site
          {
            OFFSET 0 0 0
          }
        }
      }
    }
  }
  JOINT Spine
  {
    OFFSET 0.165834 0.87714 6.61349
    CHANNELS 3 Zrotation Xrotation Yrotation
    JOINT Spine1
    {
      OFFSET 7.38963 1.71661e-005 0
      CHANNELS 3 Zrotation Xrotation Yrotation
      JOINT Spine2
      {
        OFFSET 11.9445 1.14441e-005 0
        CHANNELS 3 Zrotation Xrotation Yrotation
        JOINT Spine3
        {
          OFFSET 14.7254 4.19617e-005 0
          CHANNELS 3 Zrotation Xrotation Yrotation
          JOINT Spine4
          {
            OFFSET 10.9679 0 0
            CHANNELS 3 Zrotation Xrotation Yrotation
            JOINT RightShoulder
            {
              OFFSET 2.46616 -1.6653 3.69651
              CHANNELS 3 Zrotation Xrotation Yrotation
              JOINT RightArm
              {
                OFFSET 13.0012 0 0
                CHANNELS 3 Zrotation Xrotation Yrotation
                JOINT RightForeArm
                {
                  OFFSET 28.7848 1.52588e-005 0
                  CHANNELS 3 Zrotation Xrotation Yrotation
                  JOINT RightHand
                  {
                    OFFSET 26.5688 1.52588e-005 0
                    CHANNELS 3 Zrotation Xrotation Yrotation
                    End Site
                    {
                      OFFSET 0 0 0
                    }
                  }
                }
              }
            }
            JOINT LeftShoulder
            {
              OFFSET 2.38034 -1.29275 -3.7523
              CHANNELS 3 Zrotation Xrotation Yrotation
              JOINT LeftArm
              {
                OFFSET 16.3182 6.10351e-005 0
                CHANNELS 3 Zrotation Xrotation Yrotation
                JOINT LeftForeArm
                {
                  OFFSET 27.0901 0 0
                  CHANNELS 3 Zrotation Xrotation Yrotation
                  JOINT LeftHand
                  {
                    OFFSET 24.5451 1.52588e-005 0
                    CHANNELS 3 Zrotation Xrotation Yrotation
                    End Site
                    {
                      OFFSET 0 0 0
                    }
                  }
                }
              }
            }
            JOINT Neck
            {
              OFFSET 5.0226 -0.0266342 0
              CHANNELS 3 Zrotation Xrotation Yrotation
              JOINT Head
              {
                OFFSET 6.69364 2.86102e-005 0
                CHANNELS 3 Zrotation Xrotation Yrotation
                End Site
                {
                  OFFSET 0 0 0
                }
              }
            }
          }
        }
      }
    }
  }
}
MOTION
Frames:	15
Frame Time:	0.0416667
-87.5541 92.0779 -155.741 75.253 -45.4911 82.982 179.534 9.28469 88.8311 -32.0235 24.2986 7.05335 68.3227 12.4229 32.4836 54.2769 -7.34369 4.0287 173.575 47.4234 91.7638 -50.7496 -10.641 2.10001 64.0243 1.49474 16.8042 58.7404 -4.52908 -1.29993 -0.573021 10.0115 -90.2464 6.84826 -1.24992 -0.434313 -4.82214 -1.26781 -0.378875 -27.3604 -1.06159 -0.789907 -7.34778 -1.0616 -0.789921 98.7088 -49.8854 -87.5609 21.7934 -4.01896 -8.79907 -3.37417 -19.6866 -18.3752 -7.38719 -0.197408 -2.21744 -88.0202 -48.8258 81.2482 -1.18263 7.19718 -32.3325 16.7995 3.23924 -52.6241 7.2191 -0.300871 -6.87666 13.1341 1.58107 -6.70924 5.06668 3.82875 8.05311 
-97.6671 91.7195 -167.86 75.504 -44.8127 77.2425 179.707 24.6032 83.5725 -40.2353 22.1715 3.67639 69.1226 10.5078 27.816 50.3213 -6.70145 -0.660563 172.765 41.2135 86.7929 -73.2207 -16.7162 -0.942286 59.6618 2.54768 17.0054 62.9519 -4.38133 2.93221 -0.0737501 9.81996 -89.77 7.23117 -0.048136 0.4581 -4.43984 -0.0279186 0.459764 -26.9745 -0.183589 0.422455 -6.96191 -0.183585 0.422453 98.7645 -47.2158 -87.6542 20.1651 -0.349491 -14.6552 -1.18885 -20.8141 -9.9798 -5.34014 -0.325234 2.03743 -88.6959 -47.984 80.0541 3.06184 5.70195 -35.0945 17.3069 4.26752 -52.2611 4.97293 -0.126421 -5.51254 6.37223 -1.33299 -3.69768 8.31855 -0.0292652 5.36114 
-105.318 91.867 -177.232 78.9226 -46.3258 76.6174 -179.383 29.7854 81.5339 -38.9518 20.5584 1.81122 67.2941 7.10043 20.528 53.4109 -7.32443 2.27344 172.819 13.9089 82.0121 -61.6972 -8.27962 -2.29118 56.93 3.86258 25.5716 48.3463 -2.60085 5.92908 0.628028 9.55142 -89.6708 7.76911 1.39735 0.565528 -3.90145 1.42086 0.503479 -26.4382 1.16281 0.959334 -6.42558 1.16285 0.959352 99.2929 -44.8205 -86.9453 15.8979 -1.30887 -15.2385 -2.61664 -19.7742 -14.6528 -6.5827 -0.235787 -1.21432 -86.8101 -47.1955 82.826 5.58971 3.49375 -25.0838 17.3826 3.30383 -53.3445 2.76064 -0.242267 -7.85401 0.489503 -3.35511 -3.10299 9.04679 -2.52697 2.96081 
-113.991 91.0645 -187.634 69.5794 -48.1118 70.1807 -177.811 43.9154 82.8615 -41.2438 21.7577 0.446474 65.7239 5.44302 15.5792 56.9627 -7.73877 6.17842 176.825 5.8261 86.7146 -35.4616 -3.34419 -3.15873 60.2248 3.71504 29.0726 48.4056 -2.36374 7.70754 1.08775 8.88488 -89.8922 9.10628 2.21781 0.0678446 -2.56269 2.21865 -0.0298925 -25.1124 2.09483 0.73155 -5.09979 2.09483 0.731551 100.371 -44.1256 -85.18 12.3057 -2.53991 -17.1975 -2.87868 -6.30232 -30.8057 -11.8736 -0.116454 -4.04298 -85.678 -47.1123 84.5761 5.71952 -11.2214 -11.9058 14.8798 1.04149 -54.8188 9.82921 -0.308132 -6.41321 7.57278 -2.96555 -3.00394 5.11445 -1.95428 4.96539 
-122.345 89.6425 -197.536 72.2312 -50.7244 73.3133 -174.886 45.3359 84.495 -63.3354 19.5842 -0.180639 65.8599 5.93844 14.4414 55.2198 -7.29051 6.32386 175.887 12.3236 88.5461 -43.1811 -9.90203 -1.84839 75.4532 -3.87199 12.5269 53.2505 -3.34116 1.81648 0.596376 9.58647 -90.1733 7.70288 1.11533 -0.400122 -3.96767 1.09662 -0.448843 -26.5066 1.18402 -0.0463759 -6.494 1.18401 -0.0463947 99.8637 -47.1663 -85.8826 14.8396 1.12275 -22.5235 -6.06603 -4.37614 -43.8197 -9.35477 -0.0742203 -4.47843 -85.4988 -47.9461 84.9762 -0.201273 -21.4728 -8.5476 12.9812 0.845464 -51.3157 15.3719 -0.392495 -6.30418 14.0475 -0.322101 -7.71185 5.74642 2.60395 11.1575 
-127.924 89.5822 -203.41 72.815 -46.6824 74.2745 -179.026 35.0931 86.0327 -69.8466 14.3349 1.49571 68.2144 7.81874 14.1595 54.1585 -7.27115 4.3432 176.686 17.9289 91.8117 -45.1721 -2.76399 -1.40047 80.9452 -8.21675 6.36557 48.6619 -2.79686 1.11872 -0.250613 9.5054 -90.302 7.86091 -0.632089 -0.562188 -3.80992 -0.65621 -0.533831 -26.3452 -0.433912 -0.726154 -6.33255 -0.433906 -0.726163 101.068 -51.8104 -83.8371 20.9876 -0.788934 -19.0181 -8.75673 -9.49375 -42.1962 -14.3942 -0.310406 -2.79536 -87.4207 -48.0588 82.03 -4.406 -5.5244 -18.9531 11.2094 3.85622 -33.6413 11.3414 -0.287824 -6.02791 12.1655 0.777585 -8.54746 4.6117 3.74498 12.6505 
-131.028 91.9921 -207.792 72.6434 -45.7185 74.3027 -179.326 14.5105 84.9689 -42.2186 14.0935 2.74783 68.5921 7.76904 11.7943 54.6075 -7.10789 6.821 177.261 21.8333 90.9755 -43.3598 -3.37005 -1.37486 73.7278 -3.56059 8.76061 47.6015 -2.61504 2.11001 -0.649429 9.28079 -90.2705 8.30918 -1.41504 -0.450748 -3.36107 -1.43351 -0.388026 -25.9003 -1.21416 -0.855238 -5.88767 -1.21415 -0.855225 101.135 -55.0776 -83.6805 24.1201 -2.08744 -12.0464 -7.00137 -15.6901 -29.9045 -14.622 -0.564817 -0.456596 -89.3565 -50.1008 79.4755 -7.69306 8.13757 -27.2328 16.2668 21.0317 -30.3153 9.89196 -0.135793 -4.71712 12.3404 1.43173 -9.94198 3.28455 4.70612 14.4974 
-133.128 93.598 -211.305 72.515 -46.2341 76.3572 -175.959 -0.28852 89.8047 -11.0856 20.5479 3.14486 66.8754 7.56937 19.0484 46.763 -5.3882 1.56209 177.827 22.0932 92.4159 -38.3399 -4.52971 -0.84766 71.0311 -3.23556 9.0278 42.9425 -2.03983 -1.00437 -0.920258 8.92989 -90.3347 9.01033 -1.98494 -0.524198 -2.65918 -2.00607 -0.436302 -25.2034 -1.73561 -1.09666 -5.1907 -1.73561 -1.09667 100.319 -56.0443 -84.8449 24.7191 -2.75541 -6.58679 -5.14796 -24.9474 -19.4985 -9.49612 -0.515489 1.16083 -90.2082 -52.5803 78.7223 -10.0374 18.1887 -28.8331 20.6511 27.2358 -35.95 8.3152 -0.0875254 -4.30157 11.401 2.17919 -13.0732 1.32035 5.94089 16.8397 
-135.593 94.1377 -214.043 73.6922 -45.8185 78.7183 -173.258 0.958225 90.5609 -9.5602 23.7627 2.26665 68.8748 7.90692 18.2015 40.4632 -3.60782 -0.0581713 178.201 23.4304 93.8656 -37.0864 -3.6876 -0.44811 67.9873 -2.63051 8.32716 43.1935 -2.09373 -1.02308 -1.04403 8.6414 -90.3587 9.58653 -2.24319 -0.538595 -2.08255 -2.26474 -0.439312 -24.6295 -1.97762 -1.18809 -4.61689 -1.97759 -1.1881 101.164 -56.9169 -83.6057 25.7197 -0.819973 -0.958855 -4.61072 -25.3385 -16.2025 -5.51894 -0.286002 0.946194 -90.9642 -53.9064 77.9095 -9.42224 24.7245 -31.5968 20.5853 26.5533 -39.4159 0.826367 -0.115918 -5.27923 10.9722 1.68489 -14.3193 -0.252911 5.48539 16.9707 
-136.653 95.03 -215.141 75.57 -43.7444 79.5474 -175.241 0.346551 89.3455 -7.78944 23.7332 3.56096 66.4604 6.88447 17.9721 39.6186 -3.3323 -1.61195 177.555 21.7833 92.7897 -34.0781 -2.51976 -0.0784821 67.2128 -1.04788 10.2241 44.3244 -2.26174 -0.803654 -1.08189 8.36432 -90.3795 10.1414 -2.32888 -0.555061 -1.52756 -2.35103 -0.451976 -24.0755 -2.05437 -1.22956 -4.06285 -2.05435 -1.22957 100.856 -56.0761 -84.0676 27.9491 -0.204359 4.07265 -3.21217 -22.0533 -14.7449 -7.23687 -0.508895 3.16906 -91.2536 -54.5442 77.6318 -7.1073 26.9292 -37.1487 19.388 28.0579 -38.837 -1.92277 -0.0926071 -4.45837 10.8332 1.07848 -11.4717 -1.78535 3.95738 15.5082 
-136.469 95.3749 -214.838 75.9285 -46.1706 81.6748 -173.892 -0.479383 91.2559 -7.73954 23.0909 3.65089 66.1037 6.84163 18.8882 41.2167 -3.84681 -1.35782 177.674 18.7971 94.0016 -30.1781 -1.43805 0.491746 67.522 0.241134 15.1435 42.9544 -2.03962 0.690247 -0.869213 7.91772 -90.6605 11.0277 -2.03627 -1.11926 -0.642025 -2.08359 -1.02854 -23.182 -1.60579 -1.67953 -3.16934 -1.6058 -1.67954 100.246 -54.2981 -85.0078 28.1886 -1.34448 5.45431 -2.66586 -25.3948 -13.1687 -3.87054 -0.210047 1.44209 -90.5695 -55.3137 78.762 -5.28889 26.7137 -36.5166 19.7706 25.2527 -40.4939 -0.0760017 -0.121051 -5.96589 9.8485 1.73333 -9.97942 -5.80852 3.62354 15.3673 
-135.764 95.151 -213.43 76.8244 -49.3302 82.885 -174.028 -2.7652 91.3503 -8.23352 19.6137 4.3573 66.0542 7.31567 19.1229 43.3669 -4.52068 -0.570012 178.478 16.0525 94.7942 -29.0587 -1.56484 -0.0222898 69.3137 0.533736 18.2515 43.3712 -2.09195 1.16038 -0.806786 7.63535 -90.7973 11.59 -1.97846 -1.3838 -0.0801001 -2.03742 -1.29538 -22.6168 -1.47117 -1.91438 -2.60415 -1.47118 -1.91439 100.161 -53.9836 -85.1455 27.6713 -1.4438 4.90369 -1.31866 -20.4439 -12.3107 -7.36031 -0.440903 1.84652 -89.0091 -55.2489 80.9561 -4.12263 23.015 -34.3922 18.8509 22.7381 -39.5862 1.82904 -0.151001 -6.01275 5.99289 3.37584 -9.14654 -4.88615 4.87319 15.9995 
-134.621 94.6696 -211.979 79.3918 -52.5706 85.1953 -175.693 0.044671 91.4272 -20.6072 15.0238 3.65744 66.8844 9.00982 19.1507 47.6746 -5.56845 3.87602 178.294 13.1063 94.8936 -30.1451 -2.65362 -0.0485772 71.9094 0.605605 20.0654 48.1799 -2.61659 3.09257 -0.618544 7.75469 -91.0191 11.3474 -1.70586 -1.85866 -0.323692 -1.786 -1.7818 -22.8524 -1.06856 -2.28524 -2.83974 -1.06856 -2.28525 99.902 -52.5324 -85.5879 27.4607 -3.89456 4.89487 -0.065085 -11.502 -15.1838 -8.49695 -0.380691 0.0359658 -87.5766 -55.2396 82.9866 -3.6039 17.7036 -32.5295 18.8922 22.4032 -37.8384 3.47216 -0.162087 -5.77153 4.87609 4.60955 -7.56851 -3.82669 5.85301 17.1285 
-133.45 93.7485 -210.369 80.4069 -55.9165 84.8931 -176.348 11.1367 88.4149 -44.5518 9.57394 2.52053 66.3454 8.22605 16.895 49.878 -6.1147 4.48187 178.529 12.5136 94.1062 -33.6921 -4.73032 -1.17984 73.9291 0.344507 19.51 51.4249 -2.95701 3.5672 -0.209177 8.04595 -91.0193 10.7699 -0.886569 -1.94461 -0.902188 -0.971291 -1.90373 -23.426 -0.261323 -2.12109 -3.41335 -0.261316 -2.12109 100.003 -51.4924 -85.4763 28.3062 -5.05191 4.98699 0.426276 -7.43996 -18.2398 -9.65211 -0.269805 -1.93285 -86.89 -54.0841 83.7931 -4.19983 13.7429 -29.2757 15.9241 18.0328 -35.2174 3.15958 -0.193225 -6.51847 4.43556 4.79812 -5.90791 0.966418 6.37087 16.1521 
-131.752 93.7205 -208.201 77.736 -58.0284 80.7188 -174.922 22.2172 87.2392 -51.3489 11.3681 0.46473 67.6801 8.08228 15.3385 51.0605 -6.4214 4.55783 178.644 11.5838 92.4009 -33.1115 -6.06696 -2.31582 74.5126 -0.630236 16.8665 51.8057 -2.932 4.3472 0.160798 8.40849 -90.7615 10.0586 -0.0262557 -1.50816 -1.61325 -0.0926122 -1.50555 -24.1421 0.428187 -1.44635 -4.1294 0.428177 -1.44636 99.4866 -51.0052 -86.2911 32.3684 -5.83006 7.13468 2.86834 0.33425 -19.0462 -13.0337 -0.252418 -3.05647 -85.5058 -54.0955 85.7884 -4.11636 11.8219 -24.1661 5.9497 4.70174 -30.3897 11.3232 -0.315109 -6.16519 10.6841 4.60261 -3.06372 -0.0726594 5.61151 13.4211 
